<?xml version="1.0" standalone="no"?>
<!DOCTYPE svg PUBLIC "-//W3C//DTD SVG 20010904//EN"
 "http://www.w3.org/TR/2001/REC-SVG-20010904/DTD/svg10.dtd">
<svg version="1.0" xmlns="http://www.w3.org/2000/svg"
 width="200.000000pt" height="200.000000pt" viewBox="0 0 200.000000 200.000000"
 preserveAspectRatio="xMidYMid meet">

<g transform="translate(0.000000,200.000000) scale(0.100000,-0.100000)"
fill="#000000" stroke="none">
<path d="M560 1584 c-203 -53 -374 -214 -436 -411 -25 -81 -30 -221 -9 -305
41 -172 160 -325 309 -398 341 -169 723 -13 846 344 10 30 21 79 25 109 l7 54
-71 5 c-113 8 -113 28 -1 36 68 5 70 5 70 31 0 49 -30 145 -70 226 -49 101
-144 199 -241 250 -132 69 -302 93 -429 59z m430 -584 c0 -5 -22 -10 -50 -10
-27 0 -50 5 -50 10 0 6 23 10 50 10 28 0 50 -4 50 -10z"/>
<path d="M1443 1070 c-43 -17 -57 -81 -25 -119 28 -34 74 -37 107 -9 38 34 39
82 1 115 -29 24 -47 27 -83 13z"/>
</g>
</svg>
