<?xml version="1.0" standalone="no"?>
<!DOCTYPE svg PUBLIC "-//W3C//DTD SVG 20010904//EN"
 "http://www.w3.org/TR/2001/REC-SVG-20010904/DTD/svg10.dtd">
<svg version="1.0" xmlns="http://www.w3.org/2000/svg"
 width="200.000000pt" height="200.000000pt" viewBox="0 0 200.000000 200.000000"
 preserveAspectRatio="xMidYMid meet">

<g transform="translate(0.000000,200.000000) scale(0.100000,-0.100000)"
fill="#000000" stroke="none">
<path d="M564 1585 c-58 -13 -158 -56 -207 -90 -45 -31 -131 -121 -162 -170
-18 -27 -45 -84 -60 -125 -25 -66 -29 -89 -29 -195 -1 -128 9 -175 62 -280
115 -233 397 -368 654 -314 167 35 336 164 410 314 51 103 63 153 63 275 0
122 -12 172 -63 275 -118 238 -400 368 -668 310z"/>
<path d="M1457 1060 c-21 -17 -27 -30 -27 -60 0 -73 86 -105 133 -49 57 69
-35 165 -106 109z"/>
</g>
</svg>
