<?xml version="1.0" standalone="no"?>
<!DOCTYPE svg PUBLIC "-//W3C//DTD SVG 20010904//EN"
 "http://www.w3.org/TR/2001/REC-SVG-20010904/DTD/svg10.dtd">
<svg version="1.0" xmlns="http://www.w3.org/2000/svg"
 width="200.000000pt" height="200.000000pt" viewBox="0 0 200.000000 200.000000"
 preserveAspectRatio="xMidYMid meet">
<metadata>
Created by potrace 1.14, written by Peter Selinger 2001-2017
</metadata>
<g transform="translate(0.000000,200.000000) scale(0.100000,-0.100000)"
fill="#000000" stroke="none">
<path d="M609 1590 c-480 -76 -677 -667 -335 -1005 77 -76 169 -131 271 -160
90 -27 251 -25 333 4 84 29 162 73 218 125 l46 41 -103 96 c-57 52 -156 142
-219 199 -63 57 -115 107 -115 110 0 4 79 78 175 165 96 87 195 176 219 198
l44 41 -47 42 c-127 115 -316 171 -487 144z"/>
</g>
</svg>
