<?xml version="1.0" standalone="no"?>
<!DOCTYPE svg PUBLIC "-//W3C//DTD SVG 20010904//EN"
 "http://www.w3.org/TR/2001/REC-SVG-20010904/DTD/svg10.dtd">
<svg version="1.0" xmlns="http://www.w3.org/2000/svg"
 width="200.000000pt" height="200.000000pt" viewBox="0 0 200.000000 200.000000"
 preserveAspectRatio="xMidYMid meet">
<metadata>
Created by potrace 1.14, written by Peter Selinger 2001-2017
</metadata>
<g transform="translate(0.000000,200.000000) scale(0.100000,-0.100000)"
fill="#000000" stroke="none">
<path d="M605 1589 c-133 -20 -262 -91 -354 -195 -54 -60 -125 -207 -142 -292
-48 -248 93 -523 327 -636 97 -48 150 -59 274 -58 85 0 119 5 178 25 145 50
275 161 339 289 58 116 62 108 -79 147 -68 19 -163 47 -211 63 -48 15 -119 35
-157 44 -39 8 -70 19 -70 24 0 5 32 16 70 24 39 9 103 27 143 40 39 13 133 40
207 61 74 21 137 40 139 41 9 8 -35 104 -76 166 -124 190 -360 293 -588 257z"/>
</g>
</svg>
