<?xml version="1.0" standalone="no"?>
<!DOCTYPE svg PUBLIC "-//W3C//DTD SVG 20010904//EN"
 "http://www.w3.org/TR/2001/REC-SVG-20010904/DTD/svg10.dtd">
<svg version="1.0" xmlns="http://www.w3.org/2000/svg"
 width="200.000000pt" height="200.000000pt" viewBox="0 0 200.000000 200.000000"
 preserveAspectRatio="xMidYMid meet">
<metadata>
Created by potrace 1.14, written by Peter Selinger 2001-2017
</metadata>
<g transform="translate(0.000000,200.000000) scale(0.100000,-0.100000)"
fill="#000000" stroke="none">
<path d="M577 1585 c-225 -47 -415 -237 -463 -465 -30 -140 -6 -288 66 -411
114 -194 296 -302 510 -302 52 0 120 5 150 12 82 19 190 75 253 132 50 45 137
159 137 180 0 5 -117 66 -260 135 -143 70 -260 130 -260 134 0 4 117 64 260
133 143 70 260 130 260 132 0 24 -54 101 -109 156 -70 70 -174 131 -266 155
-78 21 -202 25 -278 9z"/>
</g>
</svg>
