<?xml version="1.0" standalone="no"?>
<!DOCTYPE svg PUBLIC "-//W3C//DTD SVG 20010904//EN"
 "http://www.w3.org/TR/2001/REC-SVG-20010904/DTD/svg10.dtd">
<svg version="1.0" xmlns="http://www.w3.org/2000/svg"
 width="200.000000pt" height="200.000000pt" viewBox="0 0 200.000000 200.000000"
 preserveAspectRatio="xMidYMid meet">
<metadata>
Created by potrace 1.14, written by Peter Selinger 2001-2017
</metadata>
<g transform="translate(0.000000,200.000000) scale(0.100000,-0.100000)"
fill="#000000" stroke="none">
<path d="M604 1590 c-115 -16 -252 -87 -333 -175 -199 -216 -223 -527 -57
-758 94 -132 216 -210 377 -243 230 -46 483 62 608 261 38 59 91 193 91 228 0
14 -26 20 -140 33 -49 6 -187 26 -317 46 -46 6 -83 15 -83 18 0 3 37 12 83 18
130 20 268 40 317 46 110 12 140 19 140 32 0 37 -55 177 -90 231 -86 131 -238
230 -395 258 -88 16 -111 16 -201 5z"/>
</g>
</svg>
