<?xml version="1.0" standalone="no"?>
<!DOCTYPE svg PUBLIC "-//W3C//DTD SVG 20010904//EN"
 "http://www.w3.org/TR/2001/REC-SVG-20010904/DTD/svg10.dtd">
<svg version="1.0" xmlns="http://www.w3.org/2000/svg"
 width="200.000000pt" height="200.000000pt" viewBox="0 0 200.000000 200.000000"
 preserveAspectRatio="xMidYMid meet">
<metadata>
Created by potrace 1.14, written by Peter Selinger 2001-2017
</metadata>
<g transform="translate(0.000000,200.000000) scale(0.100000,-0.100000)"
fill="#000000" stroke="none">
<path d="M615 1589 c-250 -38 -449 -223 -500 -464 -61 -290 100 -583 374 -683
183 -66 390 -43 540 61 62 42 121 97 120 111 0 6 -101 94 -224 196 -123 102
-224 187 -224 190 0 3 95 84 210 180 116 96 217 183 226 193 15 16 14 20 -18
53 -117 121 -330 190 -504 163z"/>
</g>
</svg>
