<?xml version="1.0" standalone="no"?>
<!DOCTYPE svg PUBLIC "-//W3C//DTD SVG 20010904//EN"
 "http://www.w3.org/TR/2001/REC-SVG-20010904/DTD/svg10.dtd">
<svg version="1.0" xmlns="http://www.w3.org/2000/svg"
 width="200.000000pt" height="200.000000pt" viewBox="0 0 200.000000 200.000000"
 preserveAspectRatio="xMidYMid meet">
<metadata>
Created by potrace 1.14, written by Peter Selinger 2001-2017
</metadata>
<g transform="translate(0.000000,200.000000) scale(0.100000,-0.100000)"
fill="#000000" stroke="none">
<path d="M610 1590 c-340 -54 -565 -380 -495 -715 45 -212 211 -386 430 -450
91 -27 251 -25 335 4 84 29 158 71 216 124 l47 43 -164 149 c-91 83 -191 174
-224 203 l-59 52 59 53 c33 28 114 101 180 161 66 60 140 127 164 149 l44 41
-47 42 c-127 115 -316 171 -486 144z"/>
</g>
</svg>
