<?xml version="1.0" standalone="no"?>
<!DOCTYPE svg PUBLIC "-//W3C//DTD SVG 20010904//EN"
 "http://www.w3.org/TR/2001/REC-SVG-20010904/DTD/svg10.dtd">
<svg version="1.0" xmlns="http://www.w3.org/2000/svg"
 width="200.000000pt" height="200.000000pt" viewBox="0 0 200.000000 200.000000"
 preserveAspectRatio="xMidYMid meet">
<metadata>
Created by potrace 1.14, written by Peter Selinger 2001-2017
</metadata>
<g transform="translate(0.000000,200.000000) scale(0.100000,-0.100000)"
fill="#000000" stroke="none">
<path d="M575 1584 c-226 -50 -406 -229 -460 -457 -70 -296 119 -613 420 -703
95 -29 250 -25 345 8 107 38 165 73 240 148 58 57 130 160 130 187 0 5 -121
58 -270 117 -148 60 -270 112 -270 116 0 4 120 55 268 114 147 60 269 110 270
111 9 9 -68 134 -111 181 -136 149 -366 222 -562 178z"/>
</g>
</svg>
