<?xml version="1.0" standalone="no"?>
<!DOCTYPE svg PUBLIC "-//W3C//DTD SVG 20010904//EN"
 "http://www.w3.org/TR/2001/REC-SVG-20010904/DTD/svg10.dtd">
<svg version="1.0" xmlns="http://www.w3.org/2000/svg"
 width="200.000000pt" height="200.000000pt" viewBox="0 0 200.000000 200.000000"
 preserveAspectRatio="xMidYMid meet">
<metadata>
Created by potrace 1.14, written by Peter Selinger 2001-2017
</metadata>
<g transform="translate(0.000000,200.000000) scale(0.100000,-0.100000)"
fill="#000000" stroke="none">
<path d="M602 1589 c-233 -39 -421 -214 -482 -450 -80 -305 109 -621 425 -715
72 -21 215 -24 295 -5 140 33 282 134 359 256 42 66 95 205 83 216 -4 3 -41
12 -82 18 -41 7 -118 21 -170 31 -52 11 -111 21 -130 24 -139 21 -190 30 -190
36 0 6 51 15 190 36 19 3 78 13 130 24 52 10 129 24 170 31 41 6 78 15 82 18
13 11 -47 165 -86 224 -81 122 -228 220 -381 252 -77 16 -133 17 -213 4z"/>
</g>
</svg>
