<?xml version="1.0" standalone="no"?>
<!DOCTYPE svg PUBLIC "-//W3C//DTD SVG 20010904//EN"
 "http://www.w3.org/TR/2001/REC-SVG-20010904/DTD/svg10.dtd">
<svg version="1.0" xmlns="http://www.w3.org/2000/svg"
 width="200.000000pt" height="200.000000pt" viewBox="0 0 200.000000 200.000000"
 preserveAspectRatio="xMidYMid meet">
<metadata>
Created by potrace 1.14, written by Peter Selinger 2001-2017
</metadata>
<g transform="translate(0.000000,200.000000) scale(0.100000,-0.100000)"
fill="#000000" stroke="none">
<path d="M595 1586 c-96 -19 -168 -49 -242 -102 -201 -144 -294 -392 -234
-626 25 -97 58 -161 121 -237 136 -164 354 -244 563 -208 120 21 217 70 311
160 l75 70 -187 135 c-216 157 -287 212 -287 222 0 10 69 64 283 219 157 114
181 135 172 150 -14 28 -113 115 -163 144 -116 68 -283 98 -412 73z"/>
</g>
</svg>
