<?xml version="1.0" standalone="no"?>
<!DOCTYPE svg PUBLIC "-//W3C//DTD SVG 20010904//EN"
 "http://www.w3.org/TR/2001/REC-SVG-20010904/DTD/svg10.dtd">
<svg version="1.0" xmlns="http://www.w3.org/2000/svg"
 width="200.000000pt" height="200.000000pt" viewBox="0 0 200.000000 200.000000"
 preserveAspectRatio="xMidYMid meet">
<metadata>
Created by potrace 1.14, written by Peter Selinger 2001-2017
</metadata>
<g transform="translate(0.000000,200.000000) scale(0.100000,-0.100000)"
fill="#000000" stroke="none">
<path d="M583 1586 c-174 -33 -338 -159 -422 -325 -33 -63 -61 -185 -61 -261
0 -79 29 -199 64 -267 63 -121 190 -238 314 -288 34 -14 105 -30 156 -37 81
-10 105 -10 173 5 101 22 223 82 295 147 51 46 106 116 97 124 -2 2 -96 62
-209 133 -252 158 -280 177 -280 183 0 6 168 115 362 236 71 43 128 82 128 86
0 3 -18 29 -41 58 -45 57 -140 131 -208 162 -108 49 -250 66 -368 44z"/>
</g>
</svg>
