<?xml version="1.0" standalone="no"?>
<!DOCTYPE svg PUBLIC "-//W3C//DTD SVG 20010904//EN"
 "http://www.w3.org/TR/2001/REC-SVG-20010904/DTD/svg10.dtd">
<svg version="1.0" xmlns="http://www.w3.org/2000/svg"
 width="200.000000pt" height="200.000000pt" viewBox="0 0 200.000000 200.000000"
 preserveAspectRatio="xMidYMid meet">
<metadata>
Created by potrace 1.14, written by Peter Selinger 2001-2017
</metadata>
<g transform="translate(0.000000,200.000000) scale(0.100000,-0.100000)"
fill="#000000" stroke="none">
<path d="M625 1594 c-166 -26 -333 -129 -421 -261 -21 -31 -51 -96 -68 -143
-26 -74 -30 -99 -29 -190 0 -87 4 -118 26 -183 80 -230 254 -374 497 -407 219
-31 446 74 570 263 41 62 85 186 93 263 l5 41 -121 7 c-66 3 -182 6 -259 6
-85 0 -138 4 -138 10 0 6 53 10 138 10 77 0 194 3 260 7 l122 6 -6 41 c-33
239 -179 422 -399 497 -79 28 -204 43 -270 33z"/>
</g>
</svg>
