<?xml version="1.0" standalone="no"?>
<!DOCTYPE svg PUBLIC "-//W3C//DTD SVG 20010904//EN"
 "http://www.w3.org/TR/2001/REC-SVG-20010904/DTD/svg10.dtd">
<svg version="1.0" xmlns="http://www.w3.org/2000/svg"
 width="200.000000pt" height="200.000000pt" viewBox="0 0 200.000000 200.000000"
 preserveAspectRatio="xMidYMid meet">
<metadata>
Created by potrace 1.14, written by Peter Selinger 2001-2017
</metadata>
<g transform="translate(0.000000,200.000000) scale(0.100000,-0.100000)"
fill="#000000" stroke="none">
<path d="M584 1586 c-134 -31 -243 -93 -330 -189 -211 -234 -202 -590 20 -812
81 -81 151 -124 250 -154 181 -55 358 -28 517 80 51 34 149 133 149 150 0 4
-110 80 -245 170 -134 90 -244 166 -244 169 0 3 110 78 244 168 135 90 245
167 245 172 0 4 -21 32 -47 61 -63 70 -179 144 -264 169 -90 27 -216 34 -295
16z"/>
</g>
</svg>
