<?xml version="1.0" standalone="no"?>
<!DOCTYPE svg PUBLIC "-//W3C//DTD SVG 20010904//EN"
 "http://www.w3.org/TR/2001/REC-SVG-20010904/DTD/svg10.dtd">
<svg version="1.0" xmlns="http://www.w3.org/2000/svg"
 width="200.000000pt" height="200.000000pt" viewBox="0 0 200.000000 200.000000"
 preserveAspectRatio="xMidYMid meet">
<metadata>
Created by potrace 1.14, written by Peter Selinger 2001-2017
</metadata>
<g transform="translate(0.000000,200.000000) scale(0.100000,-0.100000)"
fill="#000000" stroke="none">
<path d="M607 1590 c-122 -19 -258 -92 -346 -185 -255 -273 -196 -712 122
-909 133 -82 309 -112 457 -77 90 21 195 78 267 145 l66 62 -182 145 c-101 79
-207 162 -236 184 -30 22 -54 42 -54 45 -1 3 12 14 28 25 16 11 123 94 237
184 l208 165 -66 61 c-132 122 -325 182 -501 155z"/>
</g>
</svg>
