<?xml version="1.0" standalone="no"?>
<!DOCTYPE svg PUBLIC "-//W3C//DTD SVG 20010904//EN"
 "http://www.w3.org/TR/2001/REC-SVG-20010904/DTD/svg10.dtd">
<svg version="1.0" xmlns="http://www.w3.org/2000/svg"
 width="200.000000pt" height="200.000000pt" viewBox="0 0 200.000000 200.000000"
 preserveAspectRatio="xMidYMid meet">
<metadata>
Created by potrace 1.14, written by Peter Selinger 2001-2017
</metadata>
<g transform="translate(0.000000,200.000000) scale(0.100000,-0.100000)"
fill="#000000" stroke="none">
<path d="M603 1590 c-179 -27 -353 -156 -437 -323 -164 -324 2 -721 349 -835
122 -41 277 -37 395 10 116 45 243 148 298 241 l19 33 -258 138 c-143 76 -259
142 -259 146 0 4 111 67 248 140 136 72 251 135 255 140 27 25 -120 185 -224
243 -101 57 -268 86 -386 67z"/>
</g>
</svg>
