<?xml version="1.0" standalone="no"?>
<!DOCTYPE svg PUBLIC "-//W3C//DTD SVG 20010904//EN"
 "http://www.w3.org/TR/2001/REC-SVG-20010904/DTD/svg10.dtd">
<svg version="1.0" xmlns="http://www.w3.org/2000/svg"
 width="200.000000pt" height="200.000000pt" viewBox="0 0 200.000000 200.000000"
 preserveAspectRatio="xMidYMid meet">
<metadata>
Created by potrace 1.14, written by Peter Selinger 2001-2017
</metadata>
<g transform="translate(0.000000,200.000000) scale(0.100000,-0.100000)"
fill="#000000" stroke="none">
<path d="M635 1594 c-11 -2 -45 -9 -75 -15 -73 -15 -192 -77 -259 -136 -67
-59 -142 -172 -173 -261 -32 -94 -33 -256 -1 -358 45 -143 158 -278 293 -348
101 -53 171 -70 285 -70 82 1 114 6 179 28 89 30 193 94 248 152 41 43 108
143 108 160 0 6 -119 64 -265 129 -146 65 -265 121 -265 125 0 4 119 60 265
125 146 65 265 122 265 127 0 16 -71 122 -109 162 -53 57 -158 122 -243 150
-71 24 -209 40 -253 30z"/>
</g>
</svg>
