<?xml version="1.0" standalone="no"?>
<!DOCTYPE svg PUBLIC "-//W3C//DTD SVG 20010904//EN"
 "http://www.w3.org/TR/2001/REC-SVG-20010904/DTD/svg10.dtd">
<svg version="1.0" xmlns="http://www.w3.org/2000/svg"
 width="200.000000pt" height="200.000000pt" viewBox="0 0 200.000000 200.000000"
 preserveAspectRatio="xMidYMid meet">
<metadata>
Created by potrace 1.14, written by Peter Selinger 2001-2017
</metadata>
<g transform="translate(0.000000,200.000000) scale(0.100000,-0.100000)"
fill="#000000" stroke="none">
<path d="M609 1590 c-243 -38 -436 -220 -495 -468 -41 -173 16 -381 143 -522
77 -86 188 -152 303 -180 70 -17 209 -18 280 -1 139 33 283 134 358 254 50 80
87 176 69 182 -6 2 -68 18 -137 35 -69 17 -154 40 -190 50 -36 11 -78 22 -94
24 -67 11 -136 30 -136 36 0 6 69 25 136 36 16 2 58 13 94 24 36 10 121 33
190 50 69 17 131 33 138 35 18 6 -27 120 -77 194 -124 182 -363 285 -582 251z"/>
</g>
</svg>
