<?xml version="1.0" standalone="no"?>
<!DOCTYPE svg PUBLIC "-//W3C//DTD SVG 20010904//EN"
 "http://www.w3.org/TR/2001/REC-SVG-20010904/DTD/svg10.dtd">
<svg version="1.0" xmlns="http://www.w3.org/2000/svg"
 width="200.000000pt" height="200.000000pt" viewBox="0 0 200.000000 200.000000"
 preserveAspectRatio="xMidYMid meet">
<metadata>
Created by potrace 1.14, written by Peter Selinger 2001-2017
</metadata>
<g transform="translate(0.000000,200.000000) scale(0.100000,-0.100000)"
fill="#000000" stroke="none">
<path d="M575 1584 c-145 -31 -290 -129 -370 -249 -20 -31 -51 -93 -68 -138
-29 -75 -31 -92 -31 -197 1 -124 9 -159 67 -280 45 -93 158 -204 257 -252 98
-48 220 -73 312 -64 191 19 358 118 457 269 45 70 89 184 75 197 -5 4 -67 20
-139 35 -71 15 -173 37 -225 50 -52 13 -119 26 -147 30 -29 4 -53 11 -53 15 0
4 24 11 53 15 28 4 104 19 167 34 63 16 168 39 233 52 73 15 117 28 117 36 0
23 -46 138 -72 178 -95 147 -247 248 -415 274 -91 14 -131 13 -218 -5z"/>
</g>
</svg>
