<?xml version="1.0" standalone="no"?>
<!DOCTYPE svg PUBLIC "-//W3C//DTD SVG 20010904//EN"
 "http://www.w3.org/TR/2001/REC-SVG-20010904/DTD/svg10.dtd">
<svg version="1.0" xmlns="http://www.w3.org/2000/svg"
 width="200.000000pt" height="200.000000pt" viewBox="0 0 200.000000 200.000000"
 preserveAspectRatio="xMidYMid meet">
<metadata>
Created by potrace 1.14, written by Peter Selinger 2001-2017
</metadata>
<g transform="translate(0.000000,200.000000) scale(0.100000,-0.100000)"
fill="#000000" stroke="none">
<path d="M585 1586 c-341 -74 -549 -401 -465 -730 51 -201 193 -354 391 -421
191 -65 428 -20 574 108 l48 43 -34 28 c-19 16 -117 110 -218 209 l-185 180
45 40 c24 23 122 116 216 209 l172 167 -54 45 c-58 47 -155 97 -221 115 -67
17 -204 21 -269 7z"/>
</g>
</svg>
