<?xml version="1.0" standalone="no"?>
<!DOCTYPE svg PUBLIC "-//W3C//DTD SVG 20010904//EN"
 "http://www.w3.org/TR/2001/REC-SVG-20010904/DTD/svg10.dtd">
<svg version="1.0" xmlns="http://www.w3.org/2000/svg"
 width="200.000000pt" height="200.000000pt" viewBox="0 0 200.000000 200.000000"
 preserveAspectRatio="xMidYMid meet">
<metadata>
Created by potrace 1.14, written by Peter Selinger 2001-2017
</metadata>
<g transform="translate(0.000000,200.000000) scale(0.100000,-0.100000)"
fill="#000000" stroke="none">
<path d="M615 1589 c-214 -33 -388 -170 -469 -369 -114 -280 5 -603 274 -744
94 -50 177 -69 290 -69 204 0 385 102 495 277 24 40 47 86 51 102 l6 29 -276
90 c-152 50 -276 92 -276 95 0 3 124 45 276 95 l276 90 -6 29 c-9 44 -62 130
-117 190 -127 139 -339 214 -524 185z"/>
</g>
</svg>
