<?xml version="1.0" standalone="no"?>
<!DOCTYPE svg PUBLIC "-//W3C//DTD SVG 20010904//EN"
 "http://www.w3.org/TR/2001/REC-SVG-20010904/DTD/svg10.dtd">
<svg version="1.0" xmlns="http://www.w3.org/2000/svg"
 width="200.000000pt" height="200.000000pt" viewBox="0 0 200.000000 200.000000"
 preserveAspectRatio="xMidYMid meet">
<metadata>
Created by potrace 1.14, written by Peter Selinger 2001-2017
</metadata>
<g transform="translate(0.000000,200.000000) scale(0.100000,-0.100000)"
fill="#000000" stroke="none">
<path d="M595 1586 c-189 -37 -333 -142 -419 -305 -52 -100 -70 -172 -70 -281
0 -447 467 -733 865 -529 96 50 176 121 228 204 46 72 91 196 91 248 l0 35
-82 6 c-46 3 -157 11 -248 17 -156 10 -179 13 -169 23 2 2 78 9 169 15 91 6
202 14 248 17 l82 6 0 35 c0 52 -45 176 -91 248 -125 198 -373 305 -604 261z"/>
</g>
</svg>
