<?xml version="1.0" standalone="no"?>
<!DOCTYPE svg PUBLIC "-//W3C//DTD SVG 20010904//EN"
 "http://www.w3.org/TR/2001/REC-SVG-20010904/DTD/svg10.dtd">
<svg version="1.0" xmlns="http://www.w3.org/2000/svg"
 width="200.000000pt" height="200.000000pt" viewBox="0 0 200.000000 200.000000"
 preserveAspectRatio="xMidYMid meet">
<metadata>
Created by potrace 1.14, written by Peter Selinger 2001-2017
</metadata>
<g transform="translate(0.000000,200.000000) scale(0.100000,-0.100000)"
fill="#000000" stroke="none">
<path d="M595 1586 c-345 -67 -560 -397 -476 -728 25 -97 58 -161 121 -237
164 -197 449 -270 683 -175 70 28 167 96 223 155 l40 44 -242 175 c-134 96
-243 177 -243 180 0 3 95 74 212 158 117 84 225 163 241 176 l30 23 -48 51
c-134 144 -351 215 -541 178z"/>
</g>
</svg>
