<?xml version="1.0" standalone="no"?>
<!DOCTYPE svg PUBLIC "-//W3C//DTD SVG 20010904//EN"
 "http://www.w3.org/TR/2001/REC-SVG-20010904/DTD/svg10.dtd">
<svg version="1.0" xmlns="http://www.w3.org/2000/svg"
 width="200.000000pt" height="200.000000pt" viewBox="0 0 200.000000 200.000000"
 preserveAspectRatio="xMidYMid meet">
<metadata>
Created by potrace 1.14, written by Peter Selinger 2001-2017
</metadata>
<g transform="translate(0.000000,200.000000) scale(0.100000,-0.100000)"
fill="#000000" stroke="none">
<path d="M602 1590 c-192 -35 -346 -148 -432 -321 -92 -183 -93 -360 0 -537
76 -147 199 -252 355 -304 99 -33 250 -32 353 1 117 38 241 127 303 218 32 46
83 143 77 147 -1 2 -126 47 -275 101 -150 54 -273 101 -273 105 0 4 123 51
273 105 149 54 273 99 275 100 5 4 -23 60 -61 122 -71 115 -204 213 -337 248
-73 19 -192 26 -258 15z"/>
</g>
</svg>
