<?xml version="1.0" standalone="no"?>
<!DOCTYPE svg PUBLIC "-//W3C//DTD SVG 20010904//EN"
 "http://www.w3.org/TR/2001/REC-SVG-20010904/DTD/svg10.dtd">
<svg version="1.0" xmlns="http://www.w3.org/2000/svg"
 width="200.000000pt" height="200.000000pt" viewBox="0 0 200.000000 200.000000"
 preserveAspectRatio="xMidYMid meet">
<metadata>
Created by potrace 1.14, written by Peter Selinger 2001-2017
</metadata>
<g transform="translate(0.000000,200.000000) scale(0.100000,-0.100000)"
fill="#000000" stroke="none">
<path d="M620 1593 c-137 -21 -241 -74 -340 -173 -233 -233 -239 -586 -16
-827 62 -67 184 -143 271 -169 96 -29 250 -25 348 9 139 48 243 128 316 242
67 103 75 92 -121 170 -95 37 -200 80 -233 95 -33 15 -77 33 -97 41 -21 7 -38
15 -38 19 0 3 35 19 78 36 42 18 163 67 267 109 105 42 192 78 193 80 12 12
-73 141 -133 200 -127 127 -325 195 -495 168z"/>
</g>
</svg>
