<?xml version="1.0" standalone="no"?>
<!DOCTYPE svg PUBLIC "-//W3C//DTD SVG 20010904//EN"
 "http://www.w3.org/TR/2001/REC-SVG-20010904/DTD/svg10.dtd">
<svg version="1.0" xmlns="http://www.w3.org/2000/svg"
 width="200.000000pt" height="200.000000pt" viewBox="0 0 200.000000 200.000000"
 preserveAspectRatio="xMidYMid meet">
<metadata>
Created by potrace 1.14, written by Peter Selinger 2001-2017
</metadata>
<g transform="translate(0.000000,200.000000) scale(0.100000,-0.100000)"
fill="#000000" stroke="none">
<path d="M575 1584 c-145 -31 -290 -129 -370 -249 -20 -31 -51 -93 -68 -138
-29 -75 -31 -92 -31 -197 1 -124 9 -159 67 -280 45 -93 158 -204 257 -252 98
-48 220 -73 312 -64 191 19 358 118 457 269 45 70 89 184 75 197 -9 8 -163 43
-431 97 -73 15 -133 30 -133 33 0 3 57 18 128 32 347 71 442 93 442 105 0 23
-48 140 -73 179 -92 145 -247 247 -417 274 -84 13 -130 12 -215 -6z"/>
</g>
</svg>
