<?xml version="1.0" standalone="no"?>
<!DOCTYPE svg PUBLIC "-//W3C//DTD SVG 20010904//EN"
 "http://www.w3.org/TR/2001/REC-SVG-20010904/DTD/svg10.dtd">
<svg version="1.0" xmlns="http://www.w3.org/2000/svg"
 width="200.000000pt" height="200.000000pt" viewBox="0 0 200.000000 200.000000"
 preserveAspectRatio="xMidYMid meet">
<metadata>
Created by potrace 1.14, written by Peter Selinger 2001-2017
</metadata>
<g transform="translate(0.000000,200.000000) scale(0.100000,-0.100000)"
fill="#000000" stroke="none">
<path d="M577 1585 c-225 -47 -415 -237 -463 -465 -30 -140 -6 -287 67 -411
112 -193 302 -305 514 -303 112 1 179 16 275 62 85 42 187 135 237 218 l31 50
-264 129 c-145 70 -264 131 -264 135 0 4 117 64 260 134 143 69 260 129 260
132 0 23 -55 101 -109 154 -71 71 -177 133 -264 156 -81 21 -203 25 -280 9z"/>
</g>
</svg>
