<?xml version="1.0" standalone="no"?>
<!DOCTYPE svg PUBLIC "-//W3C//DTD SVG 20010904//EN"
 "http://www.w3.org/TR/2001/REC-SVG-20010904/DTD/svg10.dtd">
<svg version="1.0" xmlns="http://www.w3.org/2000/svg"
 width="200.000000pt" height="200.000000pt" viewBox="0 0 200.000000 200.000000"
 preserveAspectRatio="xMidYMid meet">
<metadata>
Created by potrace 1.14, written by Peter Selinger 2001-2017
</metadata>
<g transform="translate(0.000000,200.000000) scale(0.100000,-0.100000)"
fill="#000000" stroke="none">
<path d="M602 1590 c-192 -35 -346 -148 -432 -321 -93 -185 -93 -359 0 -539
76 -145 200 -250 355 -302 99 -32 250 -32 354 2 82 26 197 97 252 156 50 53
139 200 127 209 -6 3 -403 149 -475 173 -40 14 -73 28 -73 32 0 4 33 18 73 32
72 24 469 170 475 173 5 4 -23 61 -61 122 -73 118 -215 220 -349 252 -69 16
-185 21 -246 11z"/>
</g>
</svg>
