<?xml version="1.0" standalone="no"?>
<!DOCTYPE svg PUBLIC "-//W3C//DTD SVG 20010904//EN"
 "http://www.w3.org/TR/2001/REC-SVG-20010904/DTD/svg10.dtd">
<svg version="1.0" xmlns="http://www.w3.org/2000/svg"
 width="200.000000pt" height="200.000000pt" viewBox="0 0 200.000000 200.000000"
 preserveAspectRatio="xMidYMid meet">
<metadata>
Created by potrace 1.14, written by Peter Selinger 2001-2017
</metadata>
<g transform="translate(0.000000,200.000000) scale(0.100000,-0.100000)"
fill="#000000" stroke="none">
<path d="M605 1589 c-133 -20 -262 -91 -354 -195 -54 -60 -125 -207 -142 -292
-48 -248 93 -523 327 -636 97 -48 150 -59 274 -58 85 0 119 5 178 25 145 50
276 162 340 291 58 116 67 104 -125 160 -92 26 -217 62 -278 78 -60 16 -112
31 -114 34 -8 8 5 13 114 42 136 37 439 124 444 128 9 8 -35 104 -76 166 -124
190 -360 293 -588 257z"/>
</g>
</svg>
