<?xml version="1.0" standalone="no"?>
<!DOCTYPE svg PUBLIC "-//W3C//DTD SVG 20010904//EN"
 "http://www.w3.org/TR/2001/REC-SVG-20010904/DTD/svg10.dtd">
<svg version="1.0" xmlns="http://www.w3.org/2000/svg"
 width="200.000000pt" height="200.000000pt" viewBox="0 0 200.000000 200.000000"
 preserveAspectRatio="xMidYMid meet">
<metadata>
Created by potrace 1.14, written by Peter Selinger 2001-2017
</metadata>
<g transform="translate(0.000000,200.000000) scale(0.100000,-0.100000)"
fill="#000000" stroke="none">
<path d="M625 1594 c-166 -26 -333 -129 -421 -261 -21 -31 -51 -96 -68 -143
-101 -291 50 -626 333 -738 235 -93 475 -47 647 123 38 38 84 95 101 126 33
58 67 164 77 235 l6 41 -77 7 c-42 3 -152 6 -245 6 -105 0 -168 4 -168 10 0 6
63 10 168 10 93 0 203 3 245 6 l77 7 -6 41 c-33 239 -179 422 -399 497 -79 28
-204 43 -270 33z"/>
</g>
</svg>
