<?xml version="1.0" standalone="no"?>
<!DOCTYPE svg PUBLIC "-//W3C//DTD SVG 20010904//EN"
 "http://www.w3.org/TR/2001/REC-SVG-20010904/DTD/svg10.dtd">
<svg version="1.0" xmlns="http://www.w3.org/2000/svg"
 width="200.000000pt" height="200.000000pt" viewBox="0 0 200.000000 200.000000"
 preserveAspectRatio="xMidYMid meet">
<metadata>
Created by potrace 1.14, written by Peter Selinger 2001-2017
</metadata>
<g transform="translate(0.000000,200.000000) scale(0.100000,-0.100000)"
fill="#000000" stroke="none">
<path d="M615 1590 c-342 -48 -571 -376 -500 -715 87 -415 584 -608 928 -362
34 25 73 57 86 71 22 24 23 27 8 43 -9 10 -110 97 -226 193 -115 96 -210 177
-210 180 0 3 94 83 209 179 115 96 217 183 227 193 16 17 15 20 -18 54 -117
121 -326 189 -504 164z"/>
</g>
</svg>
