<?xml version="1.0" standalone="no"?>
<!DOCTYPE svg PUBLIC "-//W3C//DTD SVG 20010904//EN"
 "http://www.w3.org/TR/2001/REC-SVG-20010904/DTD/svg10.dtd">
<svg version="1.0" xmlns="http://www.w3.org/2000/svg"
 width="200.000000pt" height="200.000000pt" viewBox="0 0 200.000000 200.000000"
 preserveAspectRatio="xMidYMid meet">
<metadata>
Created by potrace 1.14, written by Peter Selinger 2001-2017
</metadata>
<g transform="translate(0.000000,200.000000) scale(0.100000,-0.100000)"
fill="#000000" stroke="none">
<path d="M609 1590 c-243 -38 -436 -220 -495 -468 -41 -176 18 -387 149 -529
258 -280 734 -240 935 80 50 80 87 176 69 182 -6 2 -82 22 -167 44 -85 22
-180 46 -210 54 -30 8 -83 20 -117 27 -35 7 -63 16 -63 20 0 4 28 13 63 20 34
7 87 19 117 27 30 8 125 32 210 54 85 22 161 42 168 44 18 6 -27 120 -77 194
-124 182 -363 285 -582 251z"/>
</g>
</svg>
