<?xml version="1.0" standalone="no"?>
<!DOCTYPE svg PUBLIC "-//W3C//DTD SVG 20010904//EN"
 "http://www.w3.org/TR/2001/REC-SVG-20010904/DTD/svg10.dtd">
<svg version="1.0" xmlns="http://www.w3.org/2000/svg"
 width="200.000000pt" height="200.000000pt" viewBox="0 0 200.000000 200.000000"
 preserveAspectRatio="xMidYMid meet">
<metadata>
Created by potrace 1.14, written by Peter Selinger 2001-2017
</metadata>
<g transform="translate(0.000000,200.000000) scale(0.100000,-0.100000)"
fill="#000000" stroke="none">
<path d="M615 1589 c-214 -33 -388 -169 -470 -370 -114 -278 6 -602 276 -744
92 -48 176 -68 289 -68 207 0 397 110 507 294 18 30 35 68 38 84 l6 30 -188
62 c-103 34 -227 75 -275 90 -49 15 -88 30 -88 33 0 6 152 58 192 65 13 3 32
9 43 14 11 5 87 31 168 58 l149 48 -6 29 c-9 44 -62 130 -117 190 -127 139
-339 214 -524 185z"/>
</g>
</svg>
