<?xml version="1.0" standalone="no"?>
<!DOCTYPE svg PUBLIC "-//W3C//DTD SVG 20010904//EN"
 "http://www.w3.org/TR/2001/REC-SVG-20010904/DTD/svg10.dtd">
<svg version="1.0" xmlns="http://www.w3.org/2000/svg"
 width="200.000000pt" height="200.000000pt" viewBox="0 0 200.000000 200.000000"
 preserveAspectRatio="xMidYMid meet">
<metadata>
Created by potrace 1.14, written by Peter Selinger 2001-2017
</metadata>
<g transform="translate(0.000000,200.000000) scale(0.100000,-0.100000)"
fill="#000000" stroke="none">
<path d="M595 1586 c-233 -45 -402 -200 -471 -431 -37 -124 -20 -292 42 -420
58 -120 185 -239 310 -289 121 -49 292 -53 418 -11 117 40 240 136 305 240 46
72 91 196 91 248 l0 35 -72 5 c-40 2 -163 10 -273 17 -189 12 -214 15 -204 24
2 2 94 9 204 16 110 7 233 15 273 17 l72 5 0 35 c0 52 -45 176 -91 248 -125
198 -373 305 -604 261z"/>
</g>
</svg>
