<?xml version="1.0" standalone="no"?>
<!DOCTYPE svg PUBLIC "-//W3C//DTD SVG 20010904//EN"
 "http://www.w3.org/TR/2001/REC-SVG-20010904/DTD/svg10.dtd">
<svg version="1.0" xmlns="http://www.w3.org/2000/svg"
 width="200.000000pt" height="200.000000pt" viewBox="0 0 200.000000 200.000000"
 preserveAspectRatio="xMidYMid meet">
<metadata>
Created by potrace 1.14, written by Peter Selinger 2001-2017
</metadata>
<g transform="translate(0.000000,200.000000) scale(0.100000,-0.100000)"
fill="#000000" stroke="none">
<path d="M580 1585 c-335 -75 -543 -405 -460 -729 27 -108 74 -189 155 -271
124 -125 256 -181 430 -179 114 1 172 16 278 71 67 35 207 157 207 180 0 6
-108 83 -240 173 -132 90 -240 166 -240 170 0 4 108 80 240 170 132 90 240
166 240 170 0 20 -99 115 -166 159 -127 85 -300 119 -444 86z"/>
</g>
</svg>
