<?xml version="1.0" standalone="no"?>
<!DOCTYPE svg PUBLIC "-//W3C//DTD SVG 20010904//EN"
 "http://www.w3.org/TR/2001/REC-SVG-20010904/DTD/svg10.dtd">
<svg version="1.0" xmlns="http://www.w3.org/2000/svg"
 width="200.000000pt" height="200.000000pt" viewBox="0 0 200.000000 200.000000"
 preserveAspectRatio="xMidYMid meet">
<metadata>
Created by potrace 1.14, written by Peter Selinger 2001-2017
</metadata>
<g transform="translate(0.000000,200.000000) scale(0.100000,-0.100000)"
fill="#000000" stroke="none">
<path d="M580 1586 c-123 -26 -240 -93 -323 -185 -59 -67 -90 -121 -123 -217
-23 -67 -28 -96 -28 -184 0 -89 5 -118 28 -185 86 -251 307 -412 561 -409 50
1 121 9 160 18 129 31 264 127 341 243 40 60 94 200 94 244 0 25 -2 26 -77 33
-43 4 -103 11 -133 16 -30 5 -86 11 -125 14 -184 14 -235 19 -235 26 0 7 51
12 235 26 39 3 95 9 125 14 30 5 90 12 134 16 l78 7 -6 43 c-21 154 -137 324
-278 407 -118 69 -299 100 -428 73z"/>
</g>
</svg>
